<?xml version="1.0" encoding="UTF-8" standalone="no"?>
<svg
   aria-hidden="true"
   role="img"
   class="iconify iconify--logos"
   width="31.88"
   height="32"
   preserveAspectRatio="xMidYMid meet"
   viewBox="0 0 256 257"
   version="1.1"
   id="svg6"
   sodipodi:docname="vite.svg"
   xml:space="preserve"
   inkscape:version="1.4.2 (f4327f4, 2025-05-13)"
   xmlns:inkscape="http://www.inkscape.org/namespaces/inkscape"
   xmlns:sodipodi="http://sodipodi.sourceforge.net/DTD/sodipodi-0.dtd"
   xmlns="http://www.w3.org/2000/svg"
   xmlns:svg="http://www.w3.org/2000/svg"><sodipodi:namedview
     id="namedview6"
     pagecolor="#ffffff"
     bordercolor="#000000"
     borderopacity="0.25"
     inkscape:showpageshadow="2"
     inkscape:pageopacity="0.0"
     inkscape:pagecheckerboard="0"
     inkscape:deskcolor="#d1d1d1"
     inkscape:zoom="8.2477377"
     inkscape:cx="15.398162"
     inkscape:cy="25.400905"
     inkscape:window-width="1920"
     inkscape:window-height="991"
     inkscape:window-x="-9"
     inkscape:window-y="-9"
     inkscape:window-maximized="1"
     inkscape:current-layer="svg6" /><defs
     id="defs5"><linearGradient
       id="IconifyId1813088fe1fbc01fb466"
       x1="-.828%"
       x2="57.636%"
       y1="7.652%"
       y2="78.411%"><stop
         offset="0%"
         stop-color="#41D1FF"
         id="stop1" /><stop
         offset="100%"
         stop-color="#BD34FE"
         id="stop2" /></linearGradient><linearGradient
       id="IconifyId1813088fe1fbc01fb467"
       x1="43.376%"
       x2="50.316%"
       y1="2.242%"
       y2="89.03%"><stop
         offset="0%"
         stop-color="#FFEA83"
         id="stop3" /><stop
         offset="8.333%"
         stop-color="#FFDD35"
         id="stop4" /><stop
         offset="100%"
         stop-color="#FFA800"
         id="stop5" /></linearGradient><clipPath
       clipPathUnits="userSpaceOnUse"
       id="clipPath2"><path
         d="M 0,291.321 H 668.204 V 0 H 0 Z"
         transform="translate(-151.1499,-198.5902)"
         id="path2" /></clipPath><clipPath
       clipPathUnits="userSpaceOnUse"
       id="clipPath4"><path
         d="M 0,291.321 H 668.204 V 0 H 0 Z"
         transform="translate(-100.34901,-150.85581)"
         id="path4" /></clipPath><clipPath
       clipPathUnits="userSpaceOnUse"
       id="clipPath6"><path
         d="M 0,291.321 H 668.204 V 0 H 0 Z"
         transform="translate(-143.3716,-149.2582)"
         id="path6" /></clipPath></defs><g
     id="g72"
     transform="matrix(2.05635,0,0,2.05635,-191.91583,-204.04004)"><path
       id="path1"
       d="m 0,0 c -7.627,7.628 -17.769,11.828 -28.555,11.828 -10.094,0 -19.614,-3.691 -27.046,-10.416 l 7.712,-7.851 c 5.355,4.696 12.145,7.267 19.334,7.267 7.848,0 15.227,-3.057 20.777,-8.605 z"
       style="fill:#e10e49;fill-opacity:1;fill-rule:nonzero;stroke:none"
       transform="matrix(1.3333333,0,0,-1.3333333,201.5332,123.64107)"
       clip-path="url(#clipPath2)" /><path
       id="path3"
       d="m 0,0 c -4.612,5.332 -7.137,12.059 -7.137,19.18 0,7.146 2.542,13.895 7.185,19.237 l -7.721,7.86 c -6.754,-7.439 -10.464,-16.98 -10.464,-27.097 0,-10.093 3.692,-19.611 10.414,-27.042 z"
       style="fill:#e10e49;fill-opacity:1;fill-rule:nonzero;stroke:none"
       transform="matrix(1.3333333,0,0,-1.3333333,133.79867,187.28693)"
       clip-path="url(#clipPath4)" /><path
       id="path5"
       d="m 0,0 c -5.549,-5.549 -12.928,-8.605 -20.777,-8.605 -7.275,0 -14.141,2.635 -19.526,7.439 l -7.709,-7.849 c 7.46,-6.834 17.054,-10.59 27.235,-10.59 10.787,0 20.928,4.2 28.555,11.828 z"
       style="fill:#e10e49;fill-opacity:1;fill-rule:nonzero;stroke:none"
       transform="matrix(1.3333333,0,0,-1.3333333,191.16213,189.41707)"
       clip-path="url(#clipPath6)" /></g></svg>
